<svg width="512" height="512" viewBox="0 0 512 512" fill="none" xmlns="http://www.w3.org/2000/svg">
  <!-- Background Circle -->
  <circle cx="256" cy="256" r="256" fill="#10868B"/>
  
  <!-- Decorative Ring -->
  <circle cx="256" cy="256" r="200" fill="none" stroke="#FFD700" stroke-width="3" opacity="0.3"/>
  
  <!-- Heart Symbol -->
  <path d="M256 380C256 380 140 290 140 210C140 165 170 140 200 140C220 140 240 150 256 170C272 150 292 140 312 140C342 140 372 165 372 210C372 290 256 380 256 380Z" fill="#FFD700"/>
  
  <!-- Inner Heart Detail -->
  <path d="M256 360C256 360 160 280 160 215C160 180 182 160 205 160C222 160 238 168 256 185C274 168 290 160 307 160C330 160 352 180 352 215C352 280 256 360 256 360Z" fill="#FFFFFF" opacity="0.9"/>
  
  <!-- Bangla Text বিয়ে -->
  <text x="256" y="230" font-family="Arial, sans-serif" font-size="70" font-weight="bold" fill="#10868B" text-anchor="middle" dominant-baseline="middle">বিয়ে</text>
  
  <!-- Decorative Elements - Small Hearts -->
  <path d="M180 420C180 420 165 410 165 398C165 390 170 385 176 385C180 385 184 388 188 395C192 388 196 385 200 385C206 385 211 390 211 398C211 410 196 420 188 420Z" fill="#FFD700" opacity="0.6"/>
  
  <path d="M324 420C324 420 309 410 309 398C309 390 314 385 320 385C324 385 328 388 332 395C336 388 340 385 344 385C350 385 355 390 355 398C355 410 340 420 332 420Z" fill="#FFD700" opacity="0.6"/>
</svg>
